<svg xmlns="http://www.w3.org/2000/svg" width="81.481" height="83.616" viewBox="0 0 81.481 83.616">
  <g id="Grupo_1067523" data-name="Grupo 1067523" transform="translate(-134.749 -5635.146)">
    <path id="Trazado_808774" data-name="Trazado 808774" d="M143.139,19.82l-.269,21.722c-.046,3.695.636,9.131,6.478,8.936,5.054-.549,6.393-5.337,6.434-8.785.019-1.635.038-3,.051-3.167,0,0,5.53-.45,6-5.918.227-2.643.248-8.124.212-13.083a10.216,10.216,0,0,0-9.472-10.111l-.528-.04C146.325,9.287,143.062,14.093,143.139,19.82Z" transform="translate(20.435 5629.066)" fill="#f0acac"/>
    <path id="Trazado_808775" data-name="Trazado 808775" d="M166.909,87.493a13.229,13.229,0,0,1-6.966-2.626s1.445,4.123,6.936,4.03Z" transform="translate(9.358 5580.095)" fill="#b6b9a3"/>
    <path id="Trazado_808776" data-name="Trazado 808776" d="M164.65,42.852c-.11.11-.74-.4-1.655-.424s-1.6.424-1.7.308c-.047-.053.066-.255.364-.465a2.3,2.3,0,0,1,1.36-.386,2.22,2.22,0,0,1,1.314.479C164.614,42.593,164.7,42.8,164.65,42.852Z" transform="translate(8.483 5607.978)" fill="#12263f"/>
    <path id="Trazado_808777" data-name="Trazado 808777" d="M167.575,48.7a.742.742,0,0,1-.767.694.708.708,0,0,1-.712-.721.739.739,0,0,1,.765-.7.711.711,0,0,1,.714.723Z" transform="translate(5.367 5604.028)" fill="#12263f"/>
    <path id="Trazado_808778" data-name="Trazado 808778" d="M177.381,49.805a5.547,5.547,0,0,1,1.382-.146c.212,0,.424-.034.47-.178a1.206,1.206,0,0,0-.1-.636l-.515-1.682a27.905,27.905,0,0,1-1.113-4.382,28.347,28.347,0,0,1,1.462,4.282l.487,1.7a1.25,1.25,0,0,1,.051.848.55.55,0,0,1-.377.288,1.415,1.415,0,0,1-.366.023A5.812,5.812,0,0,1,177.381,49.805Z" transform="translate(-1.955 5607.396)" fill="#12263f"/>
    <path id="Trazado_808779" data-name="Trazado 808779" d="M163.469,33.566c-.089.212-.822.049-1.7.1s-1.6.238-1.7.042c-.045-.093.091-.28.39-.462a2.882,2.882,0,0,1,2.59-.106C163.359,33.293,163.507,33.469,163.469,33.566Z" transform="translate(9.275 5613.819)" fill="#12263f"/>
    <path id="Trazado_808780" data-name="Trazado 808780" d="M188.289,38.35c-.1.165-.809-.019-1.676-.045s-1.583.083-1.674-.089c-.04-.083.1-.231.4-.363a3.021,3.021,0,0,1,1.282-.212,3.123,3.123,0,0,1,1.271.314C188.194,38.11,188.331,38.271,188.289,38.35Z" transform="translate(-6.851 5610.732)" fill="#12263f"/>
    <path id="Trazado_808781" data-name="Trazado 808781" d="M136.989,50.227c-.089-.047-3.674-1.387-3.829,2.365s3.641,3.131,3.651,3.022S136.989,50.227,136.989,50.227Z" transform="translate(26.734 5602.741)" fill="#f0acac"/>
    <path id="Trazado_808782" data-name="Trazado 808782" d="M137.466,56.366c-.015-.013-.066.045-.178.089a.658.658,0,0,1-.489,0,1.621,1.621,0,0,1-.686-1.485,2.154,2.154,0,0,1,.212-.927.756.756,0,0,1,.51-.481.333.333,0,0,1,.379.2c.045.106.019.18.038.187s.083-.059.059-.212a.424.424,0,0,0-.138-.242.5.5,0,0,0-.358-.11.922.922,0,0,0-.705.554,2.239,2.239,0,0,0-.269,1.037,1.708,1.708,0,0,0,.886,1.659.7.7,0,0,0,.6-.076C137.457,56.457,137.478,56.374,137.466,56.366Z" transform="translate(24.992 5600.521)" fill="#eb996e"/>
    <path id="Trazado_808783" data-name="Trazado 808783" d="M171.2,65.719c.042-.093-.693-.314-1.208-1a4.193,4.193,0,0,1-.519-.98c-.108-.271-.193-.443-.233-.424s-.027.2.032.492a2.793,2.793,0,0,0,.483,1.1,2.245,2.245,0,0,0,.956.732C170.994,65.744,171.189,65.753,171.2,65.719Z" transform="translate(3.344 5594.078)" fill="#12263f"/>
    <path id="Trazado_808784" data-name="Trazado 808784" d="M160.39,8.532a.89.89,0,0,0-.424-.518,2.8,2.8,0,0,0-1.4-.227,7.889,7.889,0,0,1-4.109-1.249,18.547,18.547,0,0,0-1.907-2.32,14.129,14.129,0,0,0-4.429-3.44,12.718,12.718,0,0,0-6.781-.532,5.1,5.1,0,0,0-3.859,3.992,3.97,3.97,0,0,0-3.963-.371l-.034-.015c-1.449.515-2.27,2.04-2.7,3.525a18.181,18.181,0,0,1-1.39,4.378c-.163.276-.356.607-.212.9a.608.608,0,0,0,.636.278,1.781,1.781,0,0,0,.674-.305l-.483,1.16a3.435,3.435,0,0,0,1.573-.1,33.962,33.962,0,0,0,1.028,3.89,2.236,2.236,0,0,1,1.53.378c.507.456.733,1.313,1.575.988.424-.165.82-1.061.964-1.5a21.4,21.4,0,0,0,.922-9.034,6.829,6.829,0,0,1,2.119-1.529l-.066.057c1.528-.53,3.255-1.061,4.7-.335,1.125.558,1.784,1.724,2.625,2.656a8.584,8.584,0,0,0,6.114,2.827c.08,1.538-.049,3.714.032,5.254l1.295-2.465v.011c.106-.18.195-.363.28-.545l.027-.055a9.63,9.63,0,0,1,.424-.876l.013.013a.961.961,0,0,0,1.4-1.285,2.164,2.164,0,0,0-.464-.469,1.521,1.521,0,0,0,1.447.378,1.2,1.2,0,0,0,.847-1.181,1.01,1.01,0,0,0-.606-.814,3.433,3.433,0,0,0,1.95-.424C160.142,9.378,160.519,9.015,160.39,8.532Z" transform="translate(29.339 5635.147)" fill="#12263f"/>
    <path id="Trazado_808785" data-name="Trazado 808785" d="M142.971,13.85a4.618,4.618,0,0,0-.547.5,3.9,3.9,0,0,0-.848,1.816,6.86,6.86,0,0,0-.14,1.389c0,.5.038,1.044.076,1.612a14.222,14.222,0,0,1,.04,1.794,6.081,6.081,0,0,1-.123.946,1.961,1.961,0,0,1-.386.918.824.824,0,0,1-.771.259,1.22,1.22,0,0,1-.693-.392,2.83,2.83,0,0,1-.528-1.389l.115.013a4.545,4.545,0,0,1-.663,1.145,1.633,1.633,0,0,1-1.06.581,1.058,1.058,0,0,1-.564-.1.929.929,0,0,1-.384-.378.951.951,0,0,1-.115-.486.679.679,0,0,1,.174-.424l.059.051a3.539,3.539,0,0,1-1.174.882,3.256,3.256,0,0,1-.364.142,1.011,1.011,0,0,1-.129.032.544.544,0,0,1,.123-.053c.08-.034.2-.083.352-.159a3.638,3.638,0,0,0,1.134-.9l.057.053a.707.707,0,0,0-.036.812.815.815,0,0,0,.347.333.956.956,0,0,0,.509.085,1.521,1.521,0,0,0,.988-.552,4.506,4.506,0,0,0,.636-1.122l.078-.174.036.189a2.774,2.774,0,0,0,.5,1.33,1.114,1.114,0,0,0,.621.35.695.695,0,0,0,.657-.212,1.89,1.89,0,0,0,.364-.874,6.352,6.352,0,0,0,.121-.925,14.89,14.89,0,0,0-.032-1.78c-.036-.568-.072-1.111-.066-1.621a6.852,6.852,0,0,1,.157-1.408,3.888,3.888,0,0,1,.89-1.83A2.264,2.264,0,0,1,142.971,13.85Z" transform="translate(25.572 5626.162)" fill="#fffad0"/>
    <path id="Trazado_808786" data-name="Trazado 808786" d="M175.048,13.507l-.043.036-.138.1a1.764,1.764,0,0,1-.231.148,2.8,2.8,0,0,1-.333.176,4.828,4.828,0,0,1-2.331.424,6.177,6.177,0,0,1-3.3-1.217A10.708,10.708,0,0,1,165.843,9.9c-.4-.662-.723-1.34-1.079-1.968a7.332,7.332,0,0,0-1.223-1.665,3.731,3.731,0,0,0-1.575-.957,2.684,2.684,0,0,0-.831-.1,2.992,2.992,0,0,0-.759.146,3.18,3.18,0,0,0-1.757,1.485,3.746,3.746,0,0,0-.282.821.143.143,0,0,1,0-.057,1.307,1.307,0,0,1,.025-.168,2.757,2.757,0,0,1,.212-.617A3.12,3.12,0,0,1,159.189,6a3.2,3.2,0,0,1,1.159-.719,2.964,2.964,0,0,1,.784-.159A2.77,2.77,0,0,1,162,5.21a3.815,3.815,0,0,1,1.627.974,7.307,7.307,0,0,1,1.248,1.7c.36.636.684,1.309,1.079,1.966a10.75,10.75,0,0,0,2.793,3.239,6.154,6.154,0,0,0,3.227,1.215,4.911,4.911,0,0,0,2.316-.38A7.663,7.663,0,0,0,175.048,13.507Z" transform="translate(10.4 5631.828)" fill="#fffad0"/>
    <path id="Trazado_808787" data-name="Trazado 808787" d="M196.614,22.154a.805.805,0,0,1-.2.138,4.422,4.422,0,0,1-.579.295,5.782,5.782,0,0,1-.92.3,5.927,5.927,0,0,1-2.358.076,5.624,5.624,0,0,1-.937-.244,4.2,4.2,0,0,1-.6-.257.809.809,0,0,1-.212-.123c.011-.021.311.134.831.295a6.5,6.5,0,0,0,.926.212,6.739,6.739,0,0,0,1.161.068,7.027,7.027,0,0,0,1.153-.142,6.325,6.325,0,0,0,.911-.272C196.311,22.309,196.6,22.133,196.614,22.154Z" transform="translate(-10.667 5620.777)" fill="#fffad0"/>
    <path id="Trazado_808788" data-name="Trazado 808788" d="M188.4,43.83c-.108.11-.74-.4-1.655-.424s-1.6.424-1.7.308c-.048-.053.066-.255.363-.465a2.293,2.293,0,0,1,1.362-.386,2.195,2.195,0,0,1,1.312.477C188.359,43.573,188.45,43.781,188.4,43.83Z" transform="translate(-6.918 5607.343)" fill="#12263f"/>
    <path id="Trazado_808789" data-name="Trazado 808789" d="M189.216,49.454a.744.744,0,0,1-.767.7.711.711,0,0,1-.508-.212.711.711,0,0,1-.2-.511.74.74,0,0,1,.765-.694.708.708,0,0,1,.663.445A.716.716,0,0,1,189.216,49.454Z" transform="translate(-8.673 5603.534)" fill="#12263f"/>
    <path id="Trazado_808790" data-name="Trazado 808790" d="M267.093,103.8a1.509,1.509,0,0,0-1.517-1.589,1.06,1.06,0,0,0-1.229-.483l-2.458,1.659a33.964,33.964,0,0,1-2.755,2.969c-.651-.483-.651-1.451-1.431-2.624a3.034,3.034,0,0,0-2.543-1.037,20.538,20.538,0,0,1,1.517,5.044c.144,1.934-1.06,7.33-1.06,7.33l6.961,1.96s.439-2.969,1.216-3.2c.937-.286,1.458-1.669,1.458-1.669,1.011-2.053,3.066-5.035,3.354-6.556S267.093,103.8,267.093,103.8Z" transform="translate(-52.409 5569.191)" fill="#f0acac"/>
    <path id="Trazado_808791" data-name="Trazado 808791" d="M119.451,97.933c4.425,2.783,8.881,3.818,13.394,2.028l6.781,1.735,6.677,44.646-39.143.339,1.928-10.368,4.852-37.259Z" transform="translate(43.597 5571.62)" fill="#1b3f5e"/>
    <path id="Trazado_808792" data-name="Trazado 808792" d="M199.584,108.643s5.279,2.193,7.294,6.036,5.251,14.635,5.251,14.635l5.963-10.964,11.07,2.832S220.923,143.929,218.855,146c-2.265,2.272-8.436,4.548-11.453,2.783s-3.637-8.461-3.637-8.461Z" transform="translate(-16.357 5564.672)" fill="#1b3f5e"/>
    <path id="Trazado_808793" data-name="Trazado 808793" d="M200.519,145.441c-.03,0-.055-1.983-.055-4.429s.026-4.429.055-4.429.055,1.981.055,4.429S200.555,145.441,200.519,145.441Z" transform="translate(-16.927 5546.547)" fill="#12263f"/>
    <path id="Trazado_808794" data-name="Trazado 808794" d="M203.62,115.906a6.629,6.629,0,0,1-.256.73c-.167.45-.388,1.071-.6,1.767s-.383,1.336-.5,1.8a7.461,7.461,0,0,1-.2.749.732.732,0,0,1,.019-.212c.021-.133.055-.325.1-.56.1-.469.256-1.113.473-1.814s.449-1.321.636-1.763c.093-.212.172-.4.231-.52A.72.72,0,0,1,203.62,115.906Z" transform="translate(-17.963 5559.96)" fill="#12263f"/>
    <path id="Trazado_808795" data-name="Trazado 808795" d="M83.67,117.652,84.9,100.83s-9.214.848-12.263,7.362c-2.568,5.483-9.661,21.979-10.422,24.235-2.227,6.622,1.252,15.728,15.6,15.2l1.636-9Z" transform="translate(73.156 5569.74)" fill="#1b3f5e"/>
    <path id="Trazado_808796" data-name="Trazado 808796" d="M95.066,207.155a1.5,1.5,0,0,1,.076-.161l.233-.452.879-1.654.292-.549a1.656,1.656,0,0,1,.424-.541,1.132,1.132,0,0,1,.71-.212,3.171,3.171,0,0,1,.763.123,7.879,7.879,0,0,1,1.532.592,4.216,4.216,0,0,1,.74.473l.085.074a.257.257,0,0,1,.072.115.928.928,0,0,1,.047.231,3.293,3.293,0,0,1,.011.456,17.6,17.6,0,0,1-.174,1.76c-.076.564-.163,1.107-.25,1.623-.174,1.033-.347,1.96-.5,2.736s-.271,1.4-.36,1.839c-.04.212-.074.377-.1.5a1.32,1.32,0,0,1-.038.174,1.014,1.014,0,0,1,.017-.178c.015-.115.04-.284.076-.5.08-.447.191-1.075.326-1.845s.3-1.707.473-2.74c.083-.516.167-1.061.244-1.621a17.551,17.551,0,0,0,.169-1.748,3.456,3.456,0,0,0,0-.443.868.868,0,0,0-.04-.212.164.164,0,0,0-.045-.072l-.08-.07a3.823,3.823,0,0,0-.721-.46,7.721,7.721,0,0,0-1.517-.581,3.052,3.052,0,0,0-.74-.125,1.058,1.058,0,0,0-.653.18,1.524,1.524,0,0,0-.4.509c-.106.189-.212.369-.3.543l-.909,1.64c-.106.184-.189.333-.252.441A.891.891,0,0,1,95.066,207.155Z" transform="translate(51.442 5503.085)" fill="#12263f"/>
    <path id="Trazado_808797" data-name="Trazado 808797" d="M76.1,191a.328.328,0,0,1,.108,0l.309.013c.269.013.657.036,1.136.081a14.616,14.616,0,0,1,1.674.244,8.583,8.583,0,0,1,1.969.651,7.7,7.7,0,0,1,1.729,1.144,4.6,4.6,0,0,1,1.06,1.33,2.941,2.941,0,0,1,.32,1.1,2.028,2.028,0,0,1,0,.312.341.341,0,0,1,0,.108c-.011,0,0-.151-.038-.424a3.112,3.112,0,0,0-.345-1.06,4.7,4.7,0,0,0-1.06-1.29,7.916,7.916,0,0,0-1.712-1.12,8.865,8.865,0,0,0-1.941-.653,16.366,16.366,0,0,0-1.661-.265c-.477-.053-.862-.089-1.129-.115l-.307-.032A.392.392,0,0,1,76.1,191Z" transform="translate(63.744 5511.253)" fill="#12263f"/>
    <path id="Trazado_808798" data-name="Trazado 808798" d="M100.686,188.584a4.016,4.016,0,0,1-.231.662c-.157.4-.392.952-.661,1.555s-.5,1.116-.693,1.538a4.77,4.77,0,0,1-.3.636,4.207,4.207,0,0,1,.229-.662c.159-.4.394-.952.663-1.555s.5-1.113.693-1.538A5.011,5.011,0,0,1,100.686,188.584Z" transform="translate(49.02 5512.815)" fill="#12263f"/>
    <path id="Trazado_808799" data-name="Trazado 808799" d="M118.59,142.1c-.032,0-.055-1.061-.055-2.382s.024-2.382.055-2.382.055,1.06.055,2.382S118.616,142.1,118.59,142.1Z" transform="translate(36.217 5546.057)" fill="#12263f"/>
    <g id="Grupo_1067519" data-name="Grupo 1067519" transform="translate(143.352 5707.215)" opacity="0.3">
      <path id="Trazado_808800" data-name="Trazado 808800" d="M90.869,205.138a7.8,7.8,0,0,0-4.723,5.53.859.859,0,0,0,.059.774.61.61,0,0,0,.761.061,1.759,1.759,0,0,0,.538-.621A64.191,64.191,0,0,0,90.869,205.138Z" transform="translate(-86.084 -205.138)" fill="#12263f"/>
    </g>
    <g id="Grupo_1067520" data-name="Grupo 1067520" transform="translate(137.471 5701.322)" opacity="0.3">
      <path id="Trazado_808801" data-name="Trazado 808801" d="M77.007,189.465a9.755,9.755,0,0,0-4.172-1.094,6.181,6.181,0,0,0-1.7.148c-.757.159-1.627.541-1.793,1.084,1.74-.545,4.3-.184,6.082.212a6.533,6.533,0,0,1,4.261,3.012A6.076,6.076,0,0,0,77.007,189.465Z" transform="translate(-69.347 -188.362)" fill="#12263f"/>
    </g>
    <path id="Trazado_808802" data-name="Trazado 808802" d="M108.325,119.443a1.659,1.659,0,0,1-.085-.267c-.045-.172-.119-.424-.212-.723a11.643,11.643,0,0,0-2.5-4.259c-.212-.233-.4-.424-.526-.543a1.614,1.614,0,0,1-.191-.2,1.265,1.265,0,0,1,.212.17c.138.115.328.293.553.522a10.589,10.589,0,0,1,1.517,1.994,10.466,10.466,0,0,1,1,2.295,7.226,7.226,0,0,1,.187.738A1.291,1.291,0,0,1,108.325,119.443Z" transform="translate(45.123 5561.554)" fill="#12263f"/>
    <path id="Trazado_808803" data-name="Trazado 808803" d="M105.2,181.033,94.931,156.24a1.359,1.359,0,0,1,1.314-2.049H98.3A1.321,1.321,0,0,0,99.773,153l.068-.912a1.331,1.331,0,0,1,1.484-1.19h9.813a3.43,3.43,0,0,1,2.274,1.007l.8.772a3.428,3.428,0,0,0,2.272,1.005h12.5a3.491,3.491,0,0,1,2.986,2.049l10.172,25.3Z" transform="translate(51.633 5537.261)" fill="#475d37"/>
    <g id="Grupo_1067521" data-name="Grupo 1067521" transform="translate(146.405 5688.16)" opacity="0.3">
      <path id="Trazado_808804" data-name="Trazado 808804" d="M105.2,181.033,94.931,156.24a1.359,1.359,0,0,1,1.314-2.049H98.3A1.321,1.321,0,0,0,99.773,153l.068-.912a1.331,1.331,0,0,1,1.484-1.19h9.813a3.43,3.43,0,0,1,2.274,1.007l.8.772a3.428,3.428,0,0,0,2.272,1.005h12.5a3.491,3.491,0,0,1,2.986,2.049l10.172,25.3Z" transform="translate(-94.77 -150.899)" fill="#12263f"/>
    </g>
    <path id="Trazado_808805" data-name="Trazado 808805" d="M112.369,181.388,108.5,166.4a1.511,1.511,0,0,1,1.289-1.975h30.351a1.384,1.384,0,0,1,1.292,1.116l5.637,22.555c.248.99-.149,1.584-1.047,1.571l-30.538.011a1.389,1.389,0,0,1-1.271-1.107Z" transform="translate(42.766 5528.485)" fill="#e0e0e0"/>
    <path id="Trazado_808806" data-name="Trazado 808806" d="M122.542,188.29l-1.649-23.6a1.446,1.446,0,0,1,1.441-1.549h31.447V188.29Z" transform="translate(34.691 5529.32)" fill="#e2e8ec"/>
    <path id="Trazado_808807" data-name="Trazado 808807" d="M124.591,188.852l3.742-24.326a1.741,1.741,0,0,1,1.708-1.36h31.813a1.722,1.722,0,0,1,1.606,2.4l-6.87,22.271Z" transform="translate(32.29 5529.303)" fill="#fafafa"/>
    <path id="Trazado_808808" data-name="Trazado 808808" d="M124.453,191.647l7.724-22.785a2.282,2.282,0,0,1,2.144-1.584H167.11a1.6,1.6,0,0,1,1.464,2.121L161.4,191.658Z" transform="translate(32.379 5526.636)" fill="#475d37"/>
    <g id="Grupo_1067522" data-name="Grupo 1067522" transform="translate(157.501 5704.679)" opacity="0.3">
      <path id="Trazado_808809" data-name="Trazado 808809" d="M141.545,207.709s-1.238.055-1.81.1a16.857,16.857,0,0,1-7.968-1.415,2.971,2.971,0,0,1-1.823-1.644,2.555,2.555,0,0,1,1.047-2.473,20.673,20.673,0,0,0,2.214-1.769,2.061,2.061,0,0,0,.3-2.585l-.17.123c-.443,1.126-1.678,1.669-2.7,2.312a9.542,9.542,0,0,0-4.005,5.239,4.124,4.124,0,0,0,.259,3.561,4.42,4.42,0,0,0,2.157,1.421,22.1,22.1,0,0,0,7.779.959c.835,0,3.4-.034,3.4-.034.807-.212,1.072-.636,1.558-1.321A2.157,2.157,0,0,0,141.545,207.709Z" transform="translate(-126.357 -197.918)" fill="#12263f"/>
    </g>
    <path id="Trazado_808810" data-name="Trazado 808810" d="M129.921,206.714l-8.557-1.287-3.321-1.909a1.5,1.5,0,0,1-.763-1.207v-.03a1.521,1.521,0,0,1,.941-1.449c1.06-.443,2.723-1.035,3.435-2.283,1.022-1.794,0-2.166,0-2.166l-7.143,2.864-5.056,3.444-1.02,5.734,7.055,2.305s7.862.445,10.029.2,2.17-1.256,2.17-1.256a2.039,2.039,0,0,0,1.216-1.508c1.06-.988,1.011-1.455,1.011-1.455" transform="translate(42.768 5507.756)" fill="#f0acac"/>
    <path id="Trazado_808811" data-name="Trazado 808811" d="M138.446,232.82a1.758,1.758,0,0,1,.352.068c.225.055.549.125.952.212a20.614,20.614,0,0,0,3.178.382,20.918,20.918,0,0,0,3.2-.132c.407-.049.737-.1.964-.131a1.575,1.575,0,0,1,.356-.04,1.708,1.708,0,0,1-.345.1c-.225.053-.553.117-.962.178a17.383,17.383,0,0,1-6.419-.25c-.4-.093-.725-.183-.945-.253A1.616,1.616,0,0,1,138.446,232.82Z" transform="translate(23.303 5484.121)" fill="#eb996e"/>
    <path id="Trazado_808812" data-name="Trazado 808812" d="M140.672,229.053a1.8,1.8,0,0,1,.356.068c.227.055.558.127.969.212a20.586,20.586,0,0,0,3.231.358,22.163,22.163,0,0,0,3.253-.149c.413-.051.748-.1.979-.136a1.617,1.617,0,0,1,.36-.04,1.983,1.983,0,0,1-.35.1c-.229.055-.562.119-.977.182a18.68,18.68,0,0,1-3.27.193,17.468,17.468,0,0,1-3.249-.4c-.409-.093-.737-.18-.962-.252A1.62,1.62,0,0,1,140.672,229.053Z" transform="translate(21.858 5486.564)" fill="#eb996e"/>
    <path id="Trazado_808813" data-name="Trazado 808813" d="M244.259,95.032l-15.2,3a1.937,1.937,0,0,1-2.276-1.527L222.63,75.452a1.941,1.941,0,0,1,1.526-2.278l9.64-1.909,8.978,6.223,3.011,15.261a1.938,1.938,0,0,1-1.526,2.282Z" transform="translate(-31.283 5588.918)" fill="#e2e8ec"/>
    <path id="Trazado_808814" data-name="Trazado 808814" d="M254.479,71.271l1.167,5.926a1.8,1.8,0,0,0,2.119,1.421l5.692-1.124Z" transform="translate(-51.965 5588.914)" fill="#f5f5f5"/>
    <path id="Trazado_808815" data-name="Trazado 808815" d="M258.315,89.2a2.009,2.009,0,0,0,1.937,1.6h.2c.769-.015,5.834-.11,5.813-.212S265.946,89,265.946,89l-5.692,1.124A1.857,1.857,0,0,1,258.315,89.2Z" transform="translate(-54.454 5577.416)" fill="#e0e0e0"/>
    <path id="Trazado_808816" data-name="Trazado 808816" d="M244.157,94.93l.083-.025a1.792,1.792,0,0,0,.24-.076,1.965,1.965,0,0,0,.784-.573,1.929,1.929,0,0,0,.424-1.485c-.11-.615-.263-1.326-.424-2.121l-2.636-13.257.019.03-8.979-6.213h.04l-5.56,1.1-2.91.575-.737.146a4.917,4.917,0,0,0-.727.172,1.881,1.881,0,0,0-1.206,2c.055.341.133.689.2,1.033.136.689.269,1.374.4,2.055q.4,2.04.79,4.015c.519,2.632,1.019,5.171,1.5,7.591q.356,1.813.7,3.536.169.859.333,1.7c.053.278.108.554.161.827a4.518,4.518,0,0,0,.195.8,1.9,1.9,0,0,0,1.861,1.169,7.585,7.585,0,0,0,.752-.129l2.869-.564,8.661-1.7,2.35-.452.612-.115.212-.036-.212.047-.61.125-2.352.477L232.333,97.3l-2.869.571q-.378.085-.763.132a1.99,1.99,0,0,1-1.952-1.22,4.551,4.551,0,0,1-.2-.814c-.053-.272-.108-.547-.163-.825q-.165-.834-.335-1.7-.339-1.718-.7-3.534c-.477-2.418-.979-4.957-1.5-7.589q-.392-1.975-.793-4.015c-.136-.681-.269-1.366-.407-2.055-.064-.346-.142-.685-.2-1.041a1.965,1.965,0,0,1,.161-1.061,2,2,0,0,1,1.114-1.046,5.257,5.257,0,0,1,.744-.176l.738-.146,2.909-.575,5.565-1.1h.021l.019.013,8.976,6.227h.015v.019c1.079,5.515,1.973,10.075,2.6,13.263.153.8.3,1.5.407,2.121a1.941,1.941,0,0,1-1.238,2.07,1.416,1.416,0,0,1-.242.072Z" transform="translate(-31.181 5589.02)" fill="#12263f"/>
    <path id="Trazado_808817" data-name="Trazado 808817" d="M263.445,77.491a.715.715,0,0,1-.144.04l-.424.091-1.538.322-2.284.465-1.352.267a1.862,1.862,0,0,1-1.935-.94,2.144,2.144,0,0,1-.227-.708c-.091-.469-.18-.921-.263-1.351-.165-.861-.316-1.635-.441-2.293s-.212-1.169-.288-1.546c-.03-.174-.053-.314-.072-.424a.682.682,0,0,1-.017-.148.929.929,0,0,1,.038.144c.025.106.055.246.093.424.079.375.189.9.322,1.54s.291,1.43.464,2.287c.085.424.176.884.269,1.353a2.1,2.1,0,0,0,.212.674,1.752,1.752,0,0,0,1.823.884l1.35-.259,2.289-.441,1.555-.3.424-.074A.709.709,0,0,1,263.445,77.491Z" transform="translate(-51.953 5588.918)" fill="#12263f"/>
    <path id="Trazado_808818" data-name="Trazado 808818" d="M241.815,86.482c0,.03-1.786.409-4,.848s-4.016.77-4.026.738,1.782-.407,4-.848S241.808,86.452,241.815,86.482Z" transform="translate(-38.546 5579.048)" fill="#12263f"/>
    <path id="Trazado_808819" data-name="Trazado 808819" d="M247.289,92.756c0,.03-2.636.577-5.9,1.224s-5.916,1.143-5.923,1.114,2.636-.577,5.9-1.222S247.283,92.726,247.289,92.756Z" transform="translate(-39.633 5574.978)" fill="#12263f"/>
    <path id="Trazado_808820" data-name="Trazado 808820" d="M248.947,101.173c0,.03-2.636.577-5.9,1.222s-5.917,1.145-5.923,1.116,2.636-.577,5.9-1.224S248.943,101.143,248.947,101.173Z" transform="translate(-40.709 5569.518)" fill="#12263f"/>
    <path id="Trazado_808821" data-name="Trazado 808821" d="M238.784,111.926c0-.032,2.636-.579,5.9-1.224s5.917-1.145,5.923-1.113-2.636.577-5.9,1.222S238.79,111.955,238.784,111.926Z" transform="translate(-41.786 5564.06)" fill="#12263f"/>
    <path id="Trazado_808822" data-name="Trazado 808822" d="M252.271,118c0,.03-2.636.579-5.9,1.224s-5.916,1.144-5.92,1.114,2.634-.577,5.9-1.222S252.265,117.969,252.271,118Z" transform="translate(-42.864 5558.604)" fill="#12263f"/>
    <path id="Trazado_808823" data-name="Trazado 808823" d="M253.929,126.415c0,.03-2.636.577-5.9,1.222s-5.916,1.146-5.923,1.116,2.636-.577,5.9-1.224S253.923,126.385,253.929,126.415Z" transform="translate(-43.941 5553.145)" fill="#12263f"/>
    <path id="Trazado_808824" data-name="Trazado 808824" d="M232.641,115.464l-11.153,2.2a.9.9,0,0,0-.7,1.051l.8,4.049a.894.894,0,0,0,1.05.7l11.153-2.2a.9.9,0,0,0,.7-1.052l-.8-4.049A.894.894,0,0,0,232.641,115.464Z" transform="translate(-30.098 5560.258)" fill="#475d37"/>
    <path id="Trazado_808825" data-name="Trazado 808825" d="M273.726,92.7s1.123-1.423,1.988-.636.614,1.2-.212,2.463c0,0,1.835-.1,1.246,1.79,0,0,1.829-.212,1.653,1.341,0,0,1.382,1.351.663,2.223s-3.322,2.446-3.979,2.176-.663-1.2-.663-1.2a2.562,2.562,0,0,1-1-.764c-.216-.411.155-.992.155-.992s-.659-.675-.822-.861.089-1.061.089-1.061l1.06-1.022s-1.45.636-1.752.39-.636-.448-.32-.887a13.743,13.743,0,0,1,1.483-1.421Z" transform="translate(-63.14 5575.578)" fill="#f0acac"/>
    <path id="Trazado_808826" data-name="Trazado 808826" d="M279.866,111.752a5.08,5.08,0,0,1,.475-.577,5.518,5.518,0,0,1,1.341-1.228,13.106,13.106,0,0,0,1.5-.969,6.735,6.735,0,0,0,.513-.528,1.344,1.344,0,0,1-.424.621,9.348,9.348,0,0,1-1.483,1.024,6.746,6.746,0,0,0-1.343,1.162A2.367,2.367,0,0,1,279.866,111.752Z" transform="translate(-68.433 5564.797)" fill="#eb996e"/>
    <path id="Trazado_808827" data-name="Trazado 808827" d="M276.975,107.686a13.586,13.586,0,0,1,1.5-1.627c.435-.424.808-.848,1.127-1.092a1.344,1.344,0,0,1,.564-.333c.013.023-.2.151-.483.424s-.646.691-1.085,1.122A14.412,14.412,0,0,1,276.975,107.686Z" transform="translate(-66.557 5567.272)" fill="#eb996e"/>
    <path id="Trazado_808828" data-name="Trazado 808828" d="M277.956,101.005a6.531,6.531,0,0,1,.848-.814c.466-.441.7-.906.744-.889a1.781,1.781,0,0,1-.621,1.014A3.027,3.027,0,0,1,277.956,101.005Z" transform="translate(-67.194 5570.731)" fill="#eb996e"/>
    <path id="Trazado_808829" data-name="Trazado 808829" d="M273.632,92.6a.34.34,0,0,1-.017.106c-.019.078-.045.176-.074.3-.07.276-.169.657-.294,1.145v.011c-.212.187-.449.4-.706.636a6.26,6.26,0,0,0-.784.835.426.426,0,0,0-.078.265.414.414,0,0,0,.142.248,2.641,2.641,0,0,0,.256.212.383.383,0,0,0,.293.057,5.533,5.533,0,0,0,1.424-.441l.339-.14-.275.284-1.049,1.027.017-.023a1.343,1.343,0,0,0-.055,1.06,2.958,2.958,0,0,0,.831.848l.072.053-.059.068c-.229.271-.39.7-.091.965a3.979,3.979,0,0,0,.994.681l-.123.068v-.028c.023.026-.049-.061.051.074.237-.11.068-.045.12-.064v.125a1.574,1.574,0,0,0,.017.172,1.251,1.251,0,0,0,.091.333.843.843,0,0,0,.187.28.519.519,0,0,0,.271.157,1.665,1.665,0,0,0,.693-.138,5.876,5.876,0,0,0,.689-.31,11.486,11.486,0,0,0,1.227-.742,7.052,7.052,0,0,0,1.072-.88.865.865,0,0,0,.284-.545,1.344,1.344,0,0,0-.112-.619,3.549,3.549,0,0,0-.723-1.06l-.026-.028v-.04a1.323,1.323,0,0,0-.061-.6.89.89,0,0,0-.371-.437,1.945,1.945,0,0,0-1.132-.212h-.1l.026-.1c.027-.115.059-.229.083-.341a1.808,1.808,0,0,0,.027-.337.945.945,0,0,0-.19-.6,1.373,1.373,0,0,0-1.092-.424H275.3l.066-.1a10.18,10.18,0,0,0,.591-.965,1.435,1.435,0,0,0,.15-.477.781.781,0,0,0-.1-.445,1.994,1.994,0,0,0-.576-.636.847.847,0,0,0-.686-.07,2.277,2.277,0,0,0-.848.535c-.087.078-.148.144-.193.187s-.061.066-.066.064a.374.374,0,0,1,.053-.074,2.156,2.156,0,0,1,.178-.2,2.75,2.75,0,0,1,.331-.291,1.706,1.706,0,0,1,.53-.286.91.91,0,0,1,.75.064l.176.127.159.153a1.848,1.848,0,0,1,.288.373.893.893,0,0,1,.112.5,1.53,1.53,0,0,1-.155.52,9.988,9.988,0,0,1-.587.984l-.057-.1a1.944,1.944,0,0,1,.636.091,1.176,1.176,0,0,1,.57.38,1.064,1.064,0,0,1,.225.679,1.918,1.918,0,0,1-.026.367c-.023.121-.057.24-.087.36l-.078-.1a2.119,2.119,0,0,1,1.229.231,1.048,1.048,0,0,1,.437.514,1.489,1.489,0,0,1,.076.681l-.026-.068a3.62,3.62,0,0,1,.763,1.1,1.517,1.517,0,0,1,.127.7,1.093,1.093,0,0,1-.1.36,1.65,1.65,0,0,1-.212.293,7.44,7.44,0,0,1-1.1.908,11.514,11.514,0,0,1-1.246.753,6.2,6.2,0,0,1-.708.318,1.8,1.8,0,0,1-.78.146.866.866,0,0,1-.591-.541,1.492,1.492,0,0,1-.1-.375c0-.064-.015-.127-.017-.191v-.157c.051-.019-.117.045.119-.066.1.134.03.048.051.074v.049l-.013.127-.112-.059a4.021,4.021,0,0,1-1.043-.721.849.849,0,0,1-.178-.286.716.716,0,0,1-.015-.339,1.3,1.3,0,0,1,.288-.56l.013.121a3.105,3.105,0,0,1-.877-.908,1.111,1.111,0,0,1-.1-.624,1.938,1.938,0,0,1,.155-.581v-.013h.011l1.059-1.018.077.117a5.722,5.722,0,0,1-1.469.439.515.515,0,0,1-.379-.089,3.221,3.221,0,0,1-.267-.227.536.536,0,0,1-.172-.32.551.551,0,0,1,.1-.337,6.1,6.1,0,0,1,.812-.848c.263-.24.507-.45.723-.636l-.011.019c.14-.484.252-.865.331-1.139l.091-.293A.588.588,0,0,1,273.632,92.6Z" transform="translate(-63.046 5575.672)" fill="#eb996e"/>
    <path id="Trazado_808830" data-name="Trazado 808830" d="M234.44,126.614c.089.411-.163.734-.655.848l-.371.081.108.509-.424.093-.407-1.86.8-.172C233.987,126.012,234.351,126.2,234.44,126.614Zm-.424.1c-.043-.212-.2-.295-.46-.237l-.347.076.138.636.347-.074c.252-.055.358-.2.314-.4Z" transform="translate(-37.833 5553.356)" fill="#fff"/>
    <path id="Trazado_808831" data-name="Trazado 808831" d="M238.12,125.1l.837-.182a.948.948,0,1,1,.4,1.845l-.837.18Zm1.138,1.317a.577.577,0,0,0,.217-.086.585.585,0,0,0-.466-1.057l-.388.083.246,1.145Z" transform="translate(-41.354 5554.132)" fill="#fff"/>
    <path id="Trazado_808832" data-name="Trazado 808832" d="M244.809,123.823l.106.488.848-.184.074.344-.848.184.144.67-.424.093-.4-1.843,1.394-.3.074.344Z" transform="translate(-45.369 5555.183)" fill="#fff"/>
  </g>
</svg>
