<svg xmlns="http://www.w3.org/2000/svg" xmlns:xlink="http://www.w3.org/1999/xlink" width="505" height="1271.435" viewBox="0 0 505 1271.435">
  <defs>
    <filter id="Rectángulo_375552" x="265.553" y="571.97" width="234" height="218.007" filterUnits="userSpaceOnUse">
      <feOffset dy="3" input="SourceAlpha"/>
      <feGaussianBlur stdDeviation="3" result="blur"/>
      <feFlood flood-opacity="0.161"/>
      <feComposite operator="in" in2="blur"/>
      <feComposite in="SourceGraphic"/>
    </filter>
    <filter id="Rectángulo_375554" x="265.553" y="935.973" width="234" height="118.003" filterUnits="userSpaceOnUse">
      <feOffset dy="3" input="SourceAlpha"/>
      <feGaussianBlur stdDeviation="3" result="blur-2"/>
      <feFlood flood-opacity="0.161"/>
      <feComposite operator="in" in2="blur-2"/>
      <feComposite in="SourceGraphic"/>
    </filter>
    <filter id="Trazado_806990" x="53.633" y="161.349" width="189.498" height="86.868" filterUnits="userSpaceOnUse">
      <feOffset dx="7" dy="7" input="SourceAlpha"/>
      <feGaussianBlur stdDeviation="4" result="blur-3"/>
      <feFlood flood-opacity="0.451"/>
      <feComposite operator="in" in2="blur-3"/>
      <feComposite in="SourceGraphic"/>
    </filter>
    <filter id="Trazado_806990-2" x="132.5" y="20.087" width="254" height="102.262" filterUnits="userSpaceOnUse">
      <feOffset dx="7" dy="7" input="SourceAlpha"/>
      <feGaussianBlur stdDeviation="4" result="blur-4"/>
      <feFlood flood-opacity="0.451"/>
      <feComposite operator="in" in2="blur-4"/>
      <feComposite in="SourceGraphic"/>
    </filter>
    <filter id="Trazado_806990-3" x="64.5" y="615.226" width="189.498" height="86.868" filterUnits="userSpaceOnUse">
      <feOffset dx="7" dy="7" input="SourceAlpha"/>
      <feGaussianBlur stdDeviation="4" result="blur-5"/>
      <feFlood flood-opacity="0.451"/>
      <feComposite operator="in" in2="blur-5"/>
      <feComposite in="SourceGraphic"/>
    </filter>
    <filter id="Trazado_806990-4" x="52.752" y="962.093" width="189.498" height="86.868" filterUnits="userSpaceOnUse">
      <feOffset dx="7" dy="7" input="SourceAlpha"/>
      <feGaussianBlur stdDeviation="4" result="blur-6"/>
      <feFlood flood-opacity="0.451"/>
      <feComposite operator="in" in2="blur-6"/>
      <feComposite in="SourceGraphic"/>
    </filter>
    <filter id="Rectángulo_375553" x="265.553" y="137.477" width="234" height="124" filterUnits="userSpaceOnUse">
      <feOffset dy="3" input="SourceAlpha"/>
      <feGaussianBlur stdDeviation="3" result="blur-7"/>
      <feFlood flood-opacity="0.161"/>
      <feComposite operator="in" in2="blur-7"/>
      <feComposite in="SourceGraphic"/>
    </filter>
  </defs>
  <g id="Grupo_1070139" data-name="Grupo 1070139" transform="translate(17310.5 2889.849)">
    <g id="Grupo_1067453" data-name="Grupo 1067453" transform="translate(-112.5 1131.553)">
      <rect id="Rectángulo_375139" data-name="Rectángulo 375139" width="505" height="1271.435" transform="translate(-17198 -4021.402)" fill="#fff"/>
    </g>
    <line id="Línea_1040" data-name="Línea 1040" y1="137" transform="translate(-16930.5 -1868.873)" fill="none" stroke="#142a3f" stroke-miterlimit="10" stroke-width="1"/>
    <line id="Línea_1042" data-name="Línea 1042" x1="74" transform="translate(-17099.5 -1890.873)" fill="none" stroke="#142a3f" stroke-miterlimit="10" stroke-width="1"/>
    <line id="Línea_1033" data-name="Línea 1033" x1="74" transform="translate(-17099.5 -2237.873)" fill="none" stroke="#142a3f" stroke-miterlimit="10" stroke-width="1"/>
    <line id="Línea_1031" data-name="Línea 1031" x1="74" transform="translate(-17099.5 -2684.873)" fill="none" stroke="#142a3f" stroke-miterlimit="10" stroke-width="1"/>
    <g transform="matrix(1, 0, 0, 1, -17310.5, -2889.85)" filter="url(#Rectángulo_375552)">
      <rect id="Rectángulo_375552-2" data-name="Rectángulo 375552" width="216" height="200.007" rx="20" transform="translate(274.55 577.97)" fill="#f6efe9"/>
    </g>
    <g transform="matrix(1, 0, 0, 1, -17310.5, -2889.85)" filter="url(#Rectángulo_375554)">
      <rect id="Rectángulo_375554-2" data-name="Rectángulo 375554" width="216" height="100.003" rx="20" transform="translate(274.55 941.97)" fill="#f6efe9"/>
    </g>
    <line id="Línea_1022" data-name="Línea 1022" x1="66" transform="translate(-17289.5 -2684.873)" fill="none" stroke="#142a3f" stroke-miterlimit="10" stroke-width="1"/>
    <line id="Línea_1032" data-name="Línea 1032" x1="66" transform="translate(-17289.5 -2237.873)" fill="none" stroke="#142a3f" stroke-miterlimit="10" stroke-width="1"/>
    <line id="Línea_1026" data-name="Línea 1026" x1="66" transform="translate(-17289.5 -1890.873)" fill="none" stroke="#142a3f" stroke-miterlimit="10" stroke-width="1"/>
    <line id="Línea_1027" data-name="Línea 1027" x2="35" transform="translate(-17060.5 -2538.873)" fill="none" stroke="#142a3f" stroke-miterlimit="10" stroke-width="1"/>
    <line id="Línea_1066" data-name="Línea 1066" x2="35" transform="translate(-17060.5 -2404.873)" fill="none" stroke="#142a3f" stroke-miterlimit="10" stroke-width="1"/>
    <line id="Línea_1035" data-name="Línea 1035" y1="42" transform="translate(-17167.5 -2083.873)" fill="none" stroke="#142a3f" stroke-miterlimit="10" stroke-width="1"/>
    <line id="Línea_1036" data-name="Línea 1036" y1="42" transform="translate(-16911.5 -2083.873)" fill="none" stroke="#142a3f" stroke-miterlimit="10" stroke-width="1"/>
    <line id="Línea_1037" data-name="Línea 1037" y1="28" transform="translate(-16930.5 -2111.873)" fill="none" stroke="#142a3f" stroke-miterlimit="10" stroke-width="1"/>
    <line id="Línea_1024" data-name="Línea 1024" x1="66" transform="translate(-17058.5 -2815.873) rotate(90)" fill="none" stroke="#142a3f" stroke-miterlimit="10" stroke-width="1"/>
    <line id="Línea_1023" data-name="Línea 1023" x1="232" transform="translate(-17289.5 -2749.873)" fill="none" stroke="#142a3f" stroke-miterlimit="10" stroke-width="1"/>
    <line id="Línea_1034" data-name="Línea 1034" x1="256" transform="translate(-17167.5 -2083.873)" fill="none" stroke="#142a3f" stroke-miterlimit="10" stroke-width="1"/>
    <line id="Línea_1038" data-name="Línea 1038" x1="193" transform="translate(-17123.5 -1822.873)" fill="none" stroke="#142a3f" stroke-miterlimit="10" stroke-width="1"/>
    <line id="Línea_1065" data-name="Línea 1065" x1="193" transform="translate(-17123.5 -1769.873)" fill="none" stroke="#142a3f" stroke-miterlimit="10" stroke-width="1"/>
    <line id="Línea_1020" data-name="Línea 1020" y2="858.657" transform="translate(-17289.5 -2750.03)" fill="none" stroke="#142a3f" stroke-miterlimit="10" stroke-width="1"/>
    <g transform="matrix(1, 0, 0, 1, -17310.5, -2889.85)" filter="url(#Trazado_806990)">
      <path id="Trazado_806990-5" data-name="Trazado 806990" d="M589.061,76.342c0-17.361-13.824-31.434-30.876-31.434H454.439c-17.053,0-30.876,14.073-30.876,31.434h0c0,17.361,13.824,31.434,30.876,31.434H558.184c17.053,0,30.876-14.073,30.876-31.434Z" transform="translate(-364.93 121.44)" fill="#fffad0"/>
    </g>
    <path id="Trazado_815136" data-name="Trazado 815136" d="M9.688,11.391a4.185,4.185,0,0,1-1.332,2.785,4.365,4.365,0,0,1-2.98.98,4.008,4.008,0,0,1-3.23-1.445A5.815,5.815,0,0,1,.93,9.844V8.75A6.481,6.481,0,0,1,1.5,5.961,4.231,4.231,0,0,1,3.1,4.113a4.47,4.47,0,0,1,2.406-.645A4.11,4.11,0,0,1,8.414,4.48a4.235,4.235,0,0,1,1.273,2.8H8.18a3.268,3.268,0,0,0-.848-1.975A2.565,2.565,0,0,0,5.508,4.7,2.684,2.684,0,0,0,3.254,5.759a4.882,4.882,0,0,0-.816,3.026v1.1a5.018,5.018,0,0,0,.773,2.948A2.5,2.5,0,0,0,5.375,13.93a2.887,2.887,0,0,0,1.918-.566,3.143,3.143,0,0,0,.887-1.973ZM16.727,15a3.036,3.036,0,0,1-.2-.891,3.225,3.225,0,0,1-2.406,1.047,2.984,2.984,0,0,1-2.051-.707,2.287,2.287,0,0,1-.8-1.793,2.39,2.39,0,0,1,1-2.051,4.733,4.733,0,0,1,2.824-.73H16.5V9.211A1.623,1.623,0,0,0,16.047,8a1.821,1.821,0,0,0-1.336-.449,2.107,2.107,0,0,0-1.3.391,1.151,1.151,0,0,0-.523.945H11.438a2,2,0,0,1,.449-1.223,3.066,3.066,0,0,1,1.219-.934A4.1,4.1,0,0,1,14.8,6.391a3.342,3.342,0,0,1,2.289.73,2.635,2.635,0,0,1,.859,2.012v3.891a4.757,4.757,0,0,0,.3,1.852V15Zm-2.4-1.1a2.54,2.54,0,0,0,1.289-.352,2.127,2.127,0,0,0,.883-.914V10.9H15.367q-2.656,0-2.656,1.555a1.316,1.316,0,0,0,.453,1.063A1.742,1.742,0,0,0,14.328,13.9ZM24.3,7.844a4.331,4.331,0,0,0-.711-.055A1.9,1.9,0,0,0,21.656,9v6H20.211V6.547h1.406l.023.977a2.251,2.251,0,0,1,2.016-1.133A1.477,1.477,0,0,1,24.3,6.5Zm2.7-1.3.047,1.063A3.08,3.08,0,0,1,29.57,6.391q2.68,0,2.7,3.023V15H30.828V9.406a1.946,1.946,0,0,0-.418-1.352,1.675,1.675,0,0,0-1.277-.437,2.086,2.086,0,0,0-1.234.375,2.546,2.546,0,0,0-.828.984V15H25.625V6.547Zm10.969,8.609a3.693,3.693,0,0,1-2.8-1.129,4.19,4.19,0,0,1-1.078-3.02v-.266a5.073,5.073,0,0,1,.48-2.246A3.748,3.748,0,0,1,35.91,6.949a3.378,3.378,0,0,1,1.871-.559,3.166,3.166,0,0,1,2.563,1.086,4.7,4.7,0,0,1,.914,3.109v.6H35.531a3,3,0,0,0,.73,2.02,2.3,2.3,0,0,0,1.777.77,2.517,2.517,0,0,0,1.3-.312,3.259,3.259,0,0,0,.93-.828l.883.688A3.55,3.55,0,0,1,37.961,15.156Zm-.18-7.578a1.928,1.928,0,0,0-1.469.637A3.1,3.1,0,0,0,35.578,10h4.234V9.891a2.753,2.753,0,0,0-.594-1.707A1.815,1.815,0,0,0,37.781,7.578Zm16.25,3.289a5.062,5.062,0,0,1-.883,3.109,2.829,2.829,0,0,1-2.391,1.18,3.1,3.1,0,0,1-2.422-.977v4.07H46.891V6.547h1.32l.07.938a2.977,2.977,0,0,1,2.453-1.094,2.882,2.882,0,0,1,2.41,1.148,5.117,5.117,0,0,1,.887,3.2ZM52.586,10.7a3.735,3.735,0,0,0-.609-2.258A1.963,1.963,0,0,0,50.3,7.617a2.125,2.125,0,0,0-1.969,1.164V12.82a2.129,2.129,0,0,0,1.984,1.156,1.954,1.954,0,0,0,1.652-.824A4.077,4.077,0,0,0,52.586,10.7Zm2.9-.008a4.993,4.993,0,0,1,.488-2.234A3.643,3.643,0,0,1,57.332,6.93a3.7,3.7,0,0,1,1.988-.539,3.565,3.565,0,0,1,2.793,1.2,4.6,4.6,0,0,1,1.066,3.18v.1a5.036,5.036,0,0,1-.473,2.215,3.589,3.589,0,0,1-1.352,1.527,3.743,3.743,0,0,1-2.02.547,3.556,3.556,0,0,1-2.785-1.2A4.575,4.575,0,0,1,55.484,10.8Zm1.453.172a3.616,3.616,0,0,0,.652,2.258,2.211,2.211,0,0,0,3.5-.012,3.955,3.955,0,0,0,.648-2.418,3.61,3.61,0,0,0-.66-2.254,2.1,2.1,0,0,0-1.754-.863,2.075,2.075,0,0,0-1.727.852A3.925,3.925,0,0,0,56.938,10.867ZM69.078,7.844a4.331,4.331,0,0,0-.711-.055A1.9,1.9,0,0,0,66.438,9v6H64.992V6.547H66.4l.023.977a2.251,2.251,0,0,1,2.016-1.133,1.477,1.477,0,0,1,.641.109Zm4.57,6.133A2.082,2.082,0,0,0,75,13.508a1.649,1.649,0,0,0,.641-1.172h1.367a2.621,2.621,0,0,1-.5,1.383,3.293,3.293,0,0,1-1.23,1.047,3.55,3.55,0,0,1-1.629.391A3.482,3.482,0,0,1,70.9,14a4.59,4.59,0,0,1-1.02-3.152v-.242a5.089,5.089,0,0,1,.453-2.2,3.451,3.451,0,0,1,1.3-1.492,3.7,3.7,0,0,1,2-.531A3.39,3.39,0,0,1,76,7.242a3.043,3.043,0,0,1,1,2.211H75.641a1.992,1.992,0,0,0-.621-1.348,1.932,1.932,0,0,0-1.379-.527,2.023,2.023,0,0,0-1.707.793,3.724,3.724,0,0,0-.605,2.293v.273a3.65,3.65,0,0,0,.6,2.25A2.033,2.033,0,0,0,73.648,13.977ZM80.2,15H78.758V6.547H80.2ZM78.641,4.3a.863.863,0,0,1,.215-.594.807.807,0,0,1,.637-.242.819.819,0,0,1,.641.242.854.854,0,0,1,.219.594.826.826,0,0,1-.219.586.834.834,0,0,1-.641.234.821.821,0,0,1-.637-.234A.834.834,0,0,1,78.641,4.3Zm5.242,2.242.047,1.063a3.08,3.08,0,0,1,2.531-1.219q2.68,0,2.7,3.023V15H87.719V9.406A1.946,1.946,0,0,0,87.3,8.055a1.675,1.675,0,0,0-1.277-.437,2.086,2.086,0,0,0-1.234.375,2.546,2.546,0,0,0-.828.984V15H82.516V6.547ZM96.563,15a3.036,3.036,0,0,1-.2-.891,3.225,3.225,0,0,1-2.406,1.047,2.984,2.984,0,0,1-2.051-.707,2.288,2.288,0,0,1-.8-1.793,2.39,2.39,0,0,1,1-2.051,4.733,4.733,0,0,1,2.824-.73h1.406V9.211A1.623,1.623,0,0,0,95.883,8a1.821,1.821,0,0,0-1.336-.449,2.108,2.108,0,0,0-1.3.391,1.151,1.151,0,0,0-.523.945H91.273a2,2,0,0,1,.449-1.223,3.066,3.066,0,0,1,1.219-.934,4.1,4.1,0,0,1,1.691-.344,3.342,3.342,0,0,1,2.289.73,2.635,2.635,0,0,1,.859,2.012v3.891a4.757,4.757,0,0,0,.3,1.852V15Zm-2.4-1.1a2.54,2.54,0,0,0,1.289-.352,2.127,2.127,0,0,0,.883-.914V10.9H95.2q-2.656,0-2.656,1.555A1.316,1.316,0,0,0,93,13.516,1.742,1.742,0,0,0,94.164,13.9Z" transform="translate(-17221.867 -2700.5)" fill="#12263f"/>
    <g transform="matrix(1, 0, 0, 1, -17310.5, -2889.85)" filter="url(#Trazado_806990-2)">
      <path id="Trazado_806990-6" data-name="Trazado 806990" d="M653.563,84.039c0-21.612-19.211-39.131-42.91-39.131H466.473c-23.7,0-42.91,17.519-42.91,39.131h0c0,21.612,19.211,39.131,42.91,39.131H610.653c23.7,0,42.91-17.519,42.91-39.131Z" transform="translate(-286.06 -19.82)" fill="#3b5620"/>
    </g>
    <path id="Trazado_815137" data-name="Trazado 815137" d="M15.512,12.658V17H12.427V4.2h5.106a5.948,5.948,0,0,1,2.6.541,4.074,4.074,0,0,1,1.749,1.538,4.2,4.2,0,0,1,.62,2.263,3.7,3.7,0,0,1-1.34,2.993,5.561,5.561,0,0,1-3.678,1.121Zm0-2.382h2.021A1.906,1.906,0,0,0,18.9,9.828a1.665,1.665,0,0,0,.47-1.266,2.059,2.059,0,0,0-.483-1.433,1.712,1.712,0,0,0-1.318-.545H15.512Zm14.247-.105-.976-.07a1.752,1.752,0,0,0-1.793.879V17H24.028V7.49h2.777l.1,1.222a2.294,2.294,0,0,1,2.083-1.4,2.888,2.888,0,0,1,.826.105Zm.378,1.986a5.613,5.613,0,0,1,.554-2.536,3.96,3.96,0,0,1,1.591-1.709,4.791,4.791,0,0,1,2.435-.6,4.373,4.373,0,0,1,3.366,1.323,5.076,5.076,0,0,1,1.23,3.6v.105a4.925,4.925,0,0,1-1.235,3.529,4.384,4.384,0,0,1-3.344,1.305,4.434,4.434,0,0,1-3.261-1.217,4.761,4.761,0,0,1-1.327-3.3Zm2.962.185a3.538,3.538,0,0,0,.413,1.934,1.376,1.376,0,0,0,1.222.615q1.582,0,1.617-2.435v-.3q0-2.558-1.635-2.558-1.485,0-1.608,2.206Zm7.146-.167a5.809,5.809,0,0,1,.976-3.56,3.211,3.211,0,0,1,2.725-1.3,2.731,2.731,0,0,1,2.145,1V3.5H49.06V17H46.4l-.149-1.02a2.8,2.8,0,0,1-2.32,1.2,3.205,3.205,0,0,1-2.689-1.3A5.993,5.993,0,0,1,40.244,12.175Zm2.962.185q0,2.531,1.477,2.531a1.458,1.458,0,0,0,1.406-.826V10.443A1.419,1.419,0,0,0,44.7,9.6q-1.371,0-1.485,2.215Zm13.2,3.612a3.054,3.054,0,0,1-2.54,1.2,3,3,0,0,1-2.369-.91,3.826,3.826,0,0,1-.8-2.615V7.49h2.962v6.179a1.065,1.065,0,0,0,1.187,1.222,1.548,1.548,0,0,0,1.45-.729V7.49h2.979V17H56.5Zm8.508-1.081a1.317,1.317,0,0,0,.967-.338,1.241,1.241,0,0,0,.334-.945h2.777a3.288,3.288,0,0,1-1.121,2.566,4.168,4.168,0,0,1-2.887,1,4.22,4.22,0,0,1-3.27-1.3,5.125,5.125,0,0,1-1.2-3.6v-.123A5.792,5.792,0,0,1,61.052,9.6a3.872,3.872,0,0,1,1.534-1.7,4.573,4.573,0,0,1,2.373-.593A4.116,4.116,0,0,1,67.9,8.343a3.647,3.647,0,0,1,1.09,2.786H66.216A1.626,1.626,0,0,0,65.855,10a1.244,1.244,0,0,0-.967-.4q-1.151,0-1.345,1.468a10.357,10.357,0,0,0-.062,1.283,4.068,4.068,0,0,0,.343,1.986A1.187,1.187,0,0,0,64.915,14.891Zm9.352,0a1.317,1.317,0,0,0,.967-.338,1.241,1.241,0,0,0,.334-.945h2.777a3.288,3.288,0,0,1-1.121,2.566,4.168,4.168,0,0,1-2.887,1,4.22,4.22,0,0,1-3.27-1.3,5.125,5.125,0,0,1-1.2-3.6v-.123A5.792,5.792,0,0,1,70.4,9.6a3.872,3.872,0,0,1,1.534-1.7,4.573,4.573,0,0,1,2.373-.593,4.116,4.116,0,0,1,2.944,1.028,3.647,3.647,0,0,1,1.09,2.786H75.567A1.626,1.626,0,0,0,75.207,10a1.244,1.244,0,0,0-.967-.4q-1.151,0-1.345,1.468a10.357,10.357,0,0,0-.062,1.283,4.068,4.068,0,0,0,.343,1.986A1.187,1.187,0,0,0,74.267,14.891ZM82.722,17H79.751V7.49h2.971ZM79.575,5.038A1.322,1.322,0,0,1,80.032,4a1.943,1.943,0,0,1,2.373,0,1.322,1.322,0,0,1,.457,1.037,1.322,1.322,0,0,1-.457,1.037,1.943,1.943,0,0,1-2.373,0A1.322,1.322,0,0,1,79.575,5.038Zm4.6,7.119a5.613,5.613,0,0,1,.554-2.536,3.96,3.96,0,0,1,1.591-1.709,4.791,4.791,0,0,1,2.435-.6,4.373,4.373,0,0,1,3.366,1.323,5.076,5.076,0,0,1,1.23,3.6v.105a4.925,4.925,0,0,1-1.235,3.529,4.384,4.384,0,0,1-3.344,1.305,4.434,4.434,0,0,1-3.261-1.217,4.761,4.761,0,0,1-1.327-3.3Zm2.962.185a3.538,3.538,0,0,0,.413,1.934,1.376,1.376,0,0,0,1.222.615q1.582,0,1.617-2.435v-.3q0-2.558-1.635-2.558-1.485,0-1.608,2.206ZM89.155,3.5h3.129L89.841,6.26l-2.417,0Zm8.218,3.99.1,1.116a3.225,3.225,0,0,1,2.716-1.292A2.713,2.713,0,0,1,102.4,8.2a4.226,4.226,0,0,1,.76,2.672V17h-2.971V11a1.6,1.6,0,0,0-.29-1.059A1.342,1.342,0,0,0,98.85,9.6a1.413,1.413,0,0,0-1.292.686V17H94.6V7.49Zm11.54,4.685a5.809,5.809,0,0,1,.976-3.56,3.211,3.211,0,0,1,2.725-1.3,2.731,2.731,0,0,1,2.145,1V3.5h2.971V17h-2.663l-.149-1.02a2.8,2.8,0,0,1-2.32,1.2,3.205,3.205,0,0,1-2.689-1.3A5.993,5.993,0,0,1,108.913,12.175Zm2.962.185q0,2.531,1.477,2.531a1.458,1.458,0,0,0,1.406-.826V10.443a1.419,1.419,0,0,0-1.389-.844q-1.371,0-1.485,2.215Zm12.138,4.816a4.889,4.889,0,0,1-3.542-1.305,4.507,4.507,0,0,1-1.354-3.4v-.246a5.84,5.84,0,0,1,.541-2.575,3.955,3.955,0,0,1,1.578-1.727,4.763,4.763,0,0,1,2.461-.611,4.117,4.117,0,0,1,3.164,1.244,4.887,4.887,0,0,1,1.16,3.467v1.151h-5.889a2.135,2.135,0,0,0,.694,1.257,2.066,2.066,0,0,0,1.389.457,2.662,2.662,0,0,0,2.2-.984l1.354,1.6a3.784,3.784,0,0,1-1.569,1.217A5.3,5.3,0,0,1,124.013,17.176ZM123.679,9.6q-1.3,0-1.547,1.723h2.988v-.229a1.467,1.467,0,0,0-.36-1.1A1.434,1.434,0,0,0,123.679,9.6Zm14.036,5.291a1.317,1.317,0,0,0,.967-.338,1.241,1.241,0,0,0,.334-.945h2.777a3.288,3.288,0,0,1-1.121,2.566,4.168,4.168,0,0,1-2.887,1,4.22,4.22,0,0,1-3.27-1.3,5.125,5.125,0,0,1-1.2-3.6v-.123a5.792,5.792,0,0,1,.532-2.544,3.872,3.872,0,0,1,1.534-1.7,4.573,4.573,0,0,1,2.373-.593A4.116,4.116,0,0,1,140.7,8.343a3.647,3.647,0,0,1,1.09,2.786h-2.777a1.626,1.626,0,0,0-.36-1.134,1.244,1.244,0,0,0-.967-.4q-1.151,0-1.345,1.468a10.357,10.357,0,0,0-.062,1.283,4.068,4.068,0,0,0,.343,1.986A1.187,1.187,0,0,0,137.715,14.891ZM148.4,17a3.344,3.344,0,0,1-.281-.853,2.754,2.754,0,0,1-2.285,1.028,3.374,3.374,0,0,1-2.285-.813,2.588,2.588,0,0,1-.94-2.043,2.66,2.66,0,0,1,1.143-2.338,5.821,5.821,0,0,1,3.322-.791h.914v-.5q0-1.316-1.134-1.316a.927.927,0,0,0-1.055,1.042h-2.962a2.655,2.655,0,0,1,1.173-2.239A4.931,4.931,0,0,1,147,7.314a4.323,4.323,0,0,1,2.874.888,3.086,3.086,0,0,1,1.081,2.435v4.21a4.311,4.311,0,0,0,.4,2V17Zm-1.854-1.934a1.652,1.652,0,0,0,.918-.237,1.487,1.487,0,0,0,.523-.536V12.772h-.861q-1.547,0-1.547,1.389a.848.848,0,0,0,.272.655A.986.986,0,0,0,146.548,15.066Zm11.8-4.9-.976-.07a1.752,1.752,0,0,0-1.793.879V17h-2.962V7.49H155.4l.1,1.222a2.294,2.294,0,0,1,2.083-1.4,2.888,2.888,0,0,1,.826.105ZM162.14,7.49l.1,1.116a3.225,3.225,0,0,1,2.716-1.292,2.713,2.713,0,0,1,2.219.888,4.226,4.226,0,0,1,.76,2.672V17h-2.971V11a1.6,1.6,0,0,0-.29-1.059,1.342,1.342,0,0,0-1.055-.338,1.413,1.413,0,0,0-1.292.686V17h-2.962V7.49Zm12.032,9.686a4.889,4.889,0,0,1-3.542-1.305,4.507,4.507,0,0,1-1.354-3.4v-.246a5.84,5.84,0,0,1,.541-2.575,3.955,3.955,0,0,1,1.578-1.727,4.763,4.763,0,0,1,2.461-.611,4.117,4.117,0,0,1,3.164,1.244,4.887,4.887,0,0,1,1.16,3.467v1.151h-5.889a2.135,2.135,0,0,0,.694,1.257,2.066,2.066,0,0,0,1.389.457,2.662,2.662,0,0,0,2.2-.984l1.354,1.6a3.784,3.784,0,0,1-1.569,1.217A5.3,5.3,0,0,1,174.172,17.176ZM173.838,9.6q-1.3,0-1.547,1.723h2.988v-.229a1.467,1.467,0,0,0-.36-1.1A1.434,1.434,0,0,0,173.838,9.6Z" transform="translate(-17153 -2836.762)" fill="#fff"/>
    <g transform="matrix(1, 0, 0, 1, -17310.5, -2889.85)" filter="url(#Trazado_806990-3)">
      <path id="Trazado_806990-7" data-name="Trazado 806990" d="M589.061,76.342c0-17.361-13.824-31.434-30.876-31.434H454.439c-17.053,0-30.876,14.073-30.876,31.434h0c0,17.361,13.824,31.434,30.876,31.434H558.184c17.053,0,30.876-14.073,30.876-31.434Z" transform="translate(-354.06 575.32)" fill="#fffad0"/>
    </g>
    <path id="Trazado_815135" data-name="Trazado 815135" d="M9.688,11.391a4.185,4.185,0,0,1-1.332,2.785,4.365,4.365,0,0,1-2.98.98,4.008,4.008,0,0,1-3.23-1.445A5.815,5.815,0,0,1,.93,9.844V8.75A6.481,6.481,0,0,1,1.5,5.961,4.231,4.231,0,0,1,3.1,4.113a4.47,4.47,0,0,1,2.406-.645A4.11,4.11,0,0,1,8.414,4.48a4.235,4.235,0,0,1,1.273,2.8H8.18a3.268,3.268,0,0,0-.848-1.975A2.565,2.565,0,0,0,5.508,4.7,2.684,2.684,0,0,0,3.254,5.759a4.882,4.882,0,0,0-.816,3.026v1.1a5.018,5.018,0,0,0,.773,2.948A2.5,2.5,0,0,0,5.375,13.93a2.887,2.887,0,0,0,1.918-.566,3.143,3.143,0,0,0,.887-1.973ZM16.727,15a3.036,3.036,0,0,1-.2-.891,3.225,3.225,0,0,1-2.406,1.047,2.984,2.984,0,0,1-2.051-.707,2.287,2.287,0,0,1-.8-1.793,2.39,2.39,0,0,1,1-2.051,4.733,4.733,0,0,1,2.824-.73H16.5V9.211A1.623,1.623,0,0,0,16.047,8a1.821,1.821,0,0,0-1.336-.449,2.107,2.107,0,0,0-1.3.391,1.151,1.151,0,0,0-.523.945H11.438a2,2,0,0,1,.449-1.223,3.066,3.066,0,0,1,1.219-.934A4.1,4.1,0,0,1,14.8,6.391a3.342,3.342,0,0,1,2.289.73,2.635,2.635,0,0,1,.859,2.012v3.891a4.757,4.757,0,0,0,.3,1.852V15Zm-2.4-1.1a2.54,2.54,0,0,0,1.289-.352,2.127,2.127,0,0,0,.883-.914V10.9H15.367q-2.656,0-2.656,1.555a1.316,1.316,0,0,0,.453,1.063A1.742,1.742,0,0,0,14.328,13.9ZM24.3,7.844a4.331,4.331,0,0,0-.711-.055A1.9,1.9,0,0,0,21.656,9v6H20.211V6.547h1.406l.023.977a2.251,2.251,0,0,1,2.016-1.133A1.477,1.477,0,0,1,24.3,6.5Zm2.7-1.3.047,1.063A3.08,3.08,0,0,1,29.57,6.391q2.68,0,2.7,3.023V15H30.828V9.406a1.946,1.946,0,0,0-.418-1.352,1.675,1.675,0,0,0-1.277-.437,2.086,2.086,0,0,0-1.234.375,2.546,2.546,0,0,0-.828.984V15H25.625V6.547Zm10.969,8.609a3.693,3.693,0,0,1-2.8-1.129,4.19,4.19,0,0,1-1.078-3.02v-.266a5.073,5.073,0,0,1,.48-2.246A3.748,3.748,0,0,1,35.91,6.949a3.378,3.378,0,0,1,1.871-.559,3.166,3.166,0,0,1,2.563,1.086,4.7,4.7,0,0,1,.914,3.109v.6H35.531a3,3,0,0,0,.73,2.02,2.3,2.3,0,0,0,1.777.77,2.517,2.517,0,0,0,1.3-.312,3.259,3.259,0,0,0,.93-.828l.883.688A3.55,3.55,0,0,1,37.961,15.156Zm-.18-7.578a1.928,1.928,0,0,0-1.469.637A3.1,3.1,0,0,0,35.578,10h4.234V9.891a2.753,2.753,0,0,0-.594-1.707A1.815,1.815,0,0,0,37.781,7.578Zm16.266,3.289a5.026,5.026,0,0,1-.891,3.113,2.846,2.846,0,0,1-2.391,1.176,2.947,2.947,0,0,1-2.477-1.133l-.07.977H46.891V3h1.445V7.477A2.93,2.93,0,0,1,50.75,6.391a2.863,2.863,0,0,1,2.418,1.164,5.177,5.177,0,0,1,.879,3.188ZM52.6,10.7a3.906,3.906,0,0,0-.57-2.281,1.888,1.888,0,0,0-1.641-.8,2.122,2.122,0,0,0-2.055,1.328V12.6a2.181,2.181,0,0,0,2.07,1.328,1.878,1.878,0,0,0,1.617-.8A4.153,4.153,0,0,0,52.6,10.7Zm2.883-.008a4.993,4.993,0,0,1,.488-2.234A3.643,3.643,0,0,1,57.332,6.93a3.7,3.7,0,0,1,1.988-.539,3.565,3.565,0,0,1,2.793,1.2,4.6,4.6,0,0,1,1.066,3.18v.1a5.036,5.036,0,0,1-.473,2.215,3.589,3.589,0,0,1-1.352,1.527,3.743,3.743,0,0,1-2.02.547,3.556,3.556,0,0,1-2.785-1.2A4.575,4.575,0,0,1,55.484,10.8Zm1.453.172a3.616,3.616,0,0,0,.652,2.258,2.211,2.211,0,0,0,3.5-.012,3.955,3.955,0,0,0,.648-2.418,3.61,3.61,0,0,0-.66-2.254,2.1,2.1,0,0,0-1.754-.863,2.075,2.075,0,0,0-1.727.852A3.925,3.925,0,0,0,56.938,10.867Zm10.727,2.172,2.094-6.492h1.477L68.2,15H67.1L64.039,6.547h1.477ZM74.2,15H72.75V6.547H74.2ZM72.633,4.3a.863.863,0,0,1,.215-.594.807.807,0,0,1,.637-.242.819.819,0,0,1,.641.242.854.854,0,0,1,.219.594.826.826,0,0,1-.219.586.834.834,0,0,1-.641.234.821.821,0,0,1-.637-.234A.834.834,0,0,1,72.633,4.3Zm5.242,2.242.047,1.063a3.08,3.08,0,0,1,2.531-1.219q2.68,0,2.7,3.023V15H81.711V9.406a1.946,1.946,0,0,0-.418-1.352,1.675,1.675,0,0,0-1.277-.437,2.086,2.086,0,0,0-1.234.375,2.546,2.546,0,0,0-.828.984V15H76.508V6.547ZM90.555,15a3.036,3.036,0,0,1-.2-.891,3.225,3.225,0,0,1-2.406,1.047,2.984,2.984,0,0,1-2.051-.707,2.288,2.288,0,0,1-.8-1.793,2.39,2.39,0,0,1,1-2.051,4.733,4.733,0,0,1,2.824-.73h1.406V9.211A1.623,1.623,0,0,0,89.875,8a1.821,1.821,0,0,0-1.336-.449,2.108,2.108,0,0,0-1.3.391,1.151,1.151,0,0,0-.523.945H85.266a2,2,0,0,1,.449-1.223,3.066,3.066,0,0,1,1.219-.934,4.1,4.1,0,0,1,1.691-.344,3.342,3.342,0,0,1,2.289.73,2.635,2.635,0,0,1,.859,2.012v3.891a4.757,4.757,0,0,0,.3,1.852V15Zm-2.4-1.1a2.54,2.54,0,0,0,1.289-.352,2.127,2.127,0,0,0,.883-.914V10.9H89.2q-2.656,0-2.656,1.555a1.316,1.316,0,0,0,.453,1.063A1.742,1.742,0,0,0,88.156,13.9Z" transform="translate(-17211 -2246.623)" fill="#12263f"/>
    <g id="Grupo_1067478" data-name="Grupo 1067478" transform="translate(-18078.014 -11415.445)">
      <text id="Se_busca_que_los_animales_tengan_una_adecuada_cantidad_y_calidad_de_tejido_muscular._Consta_de_dos_etapas:_" data-name="Se busca que los animales tengan una adecuada cantidad y calidad de tejido muscular. 
Consta de dos etapas:
" transform="translate(1072.502 9134.836)" fill="#12263f" font-size="16" font-family="Roboto-Regular, Roboto"><tspan x="0" y="15">Se busca que los </tspan><tspan x="0" y="39">animales tengan una </tspan><tspan x="0" y="63">adecuada cantidad y </tspan><tspan x="0" y="87">calidad de tejido </tspan><tspan x="0" y="111">muscular. </tspan><tspan x="0" y="135">Consta de dos etapas:</tspan></text>
    </g>
    <g transform="matrix(1, 0, 0, 1, -17310.5, -2889.85)" filter="url(#Trazado_806990-4)">
      <path id="Trazado_806990-8" data-name="Trazado 806990" d="M589.061,76.342c0-17.361-13.824-31.434-30.876-31.434H454.439c-17.053,0-30.876,14.073-30.876,31.434h0c0,17.361,13.824,31.434,30.876,31.434H558.184c17.053,0,30.876-14.073,30.876-31.434Z" transform="translate(-365.81 922.19)" fill="#fffad0"/>
    </g>
    <path id="Trazado_815134" data-name="Trazado 815134" d="M9.688,11.391a4.185,4.185,0,0,1-1.332,2.785,4.365,4.365,0,0,1-2.98.98,4.008,4.008,0,0,1-3.23-1.445A5.815,5.815,0,0,1,.93,9.844V8.75A6.481,6.481,0,0,1,1.5,5.961,4.231,4.231,0,0,1,3.1,4.113a4.47,4.47,0,0,1,2.406-.645A4.11,4.11,0,0,1,8.414,4.48a4.235,4.235,0,0,1,1.273,2.8H8.18a3.268,3.268,0,0,0-.848-1.975A2.565,2.565,0,0,0,5.508,4.7,2.684,2.684,0,0,0,3.254,5.759a4.882,4.882,0,0,0-.816,3.026v1.1a5.018,5.018,0,0,0,.773,2.948A2.5,2.5,0,0,0,5.375,13.93a2.887,2.887,0,0,0,1.918-.566,3.143,3.143,0,0,0,.887-1.973ZM16.727,15a3.036,3.036,0,0,1-.2-.891,3.225,3.225,0,0,1-2.406,1.047,2.984,2.984,0,0,1-2.051-.707,2.287,2.287,0,0,1-.8-1.793,2.39,2.39,0,0,1,1-2.051,4.733,4.733,0,0,1,2.824-.73H16.5V9.211A1.623,1.623,0,0,0,16.047,8a1.821,1.821,0,0,0-1.336-.449,2.107,2.107,0,0,0-1.3.391,1.151,1.151,0,0,0-.523.945H11.438a2,2,0,0,1,.449-1.223,3.066,3.066,0,0,1,1.219-.934A4.1,4.1,0,0,1,14.8,6.391a3.342,3.342,0,0,1,2.289.73,2.635,2.635,0,0,1,.859,2.012v3.891a4.757,4.757,0,0,0,.3,1.852V15Zm-2.4-1.1a2.54,2.54,0,0,0,1.289-.352,2.127,2.127,0,0,0,.883-.914V10.9H15.367q-2.656,0-2.656,1.555a1.316,1.316,0,0,0,.453,1.063A1.742,1.742,0,0,0,14.328,13.9ZM24.3,7.844a4.331,4.331,0,0,0-.711-.055A1.9,1.9,0,0,0,21.656,9v6H20.211V6.547h1.406l.023.977a2.251,2.251,0,0,1,2.016-1.133A1.477,1.477,0,0,1,24.3,6.5Zm2.7-1.3.047,1.063A3.08,3.08,0,0,1,29.57,6.391q2.68,0,2.7,3.023V15H30.828V9.406a1.946,1.946,0,0,0-.418-1.352,1.675,1.675,0,0,0-1.277-.437,2.086,2.086,0,0,0-1.234.375,2.546,2.546,0,0,0-.828.984V15H25.625V6.547Zm10.969,8.609a3.693,3.693,0,0,1-2.8-1.129,4.19,4.19,0,0,1-1.078-3.02v-.266a5.073,5.073,0,0,1,.48-2.246A3.748,3.748,0,0,1,35.91,6.949a3.378,3.378,0,0,1,1.871-.559,3.166,3.166,0,0,1,2.563,1.086,4.7,4.7,0,0,1,.914,3.109v.6H35.531a3,3,0,0,0,.73,2.02,2.3,2.3,0,0,0,1.777.77,2.517,2.517,0,0,0,1.3-.312,3.259,3.259,0,0,0,.93-.828l.883.688A3.55,3.55,0,0,1,37.961,15.156Zm-.18-7.578a1.928,1.928,0,0,0-1.469.637A3.1,3.1,0,0,0,35.578,10h4.234V9.891a2.753,2.753,0,0,0-.594-1.707A1.815,1.815,0,0,0,37.781,7.578ZM46.539,10.7a4.952,4.952,0,0,1,.922-3.129,3.137,3.137,0,0,1,4.766-.168V3h1.445V15H52.344l-.07-.906a2.943,2.943,0,0,1-2.414,1.063,2.887,2.887,0,0,1-2.395-1.2,5.008,5.008,0,0,1-.926-3.141Zm1.445.164a3.749,3.749,0,0,0,.594,2.25,1.92,1.92,0,0,0,1.641.813A2.108,2.108,0,0,0,52.227,12.7V8.813a2.125,2.125,0,0,0-1.992-1.2,1.929,1.929,0,0,0-1.656.82A4.128,4.128,0,0,0,47.984,10.867Zm11.438,4.289a3.693,3.693,0,0,1-2.8-1.129,4.19,4.19,0,0,1-1.078-3.02v-.266a5.073,5.073,0,0,1,.48-2.246,3.748,3.748,0,0,1,1.344-1.547,3.378,3.378,0,0,1,1.871-.559A3.166,3.166,0,0,1,61.8,7.477a4.7,4.7,0,0,1,.914,3.109v.6H56.992a3,3,0,0,0,.73,2.02,2.3,2.3,0,0,0,1.777.77,2.517,2.517,0,0,0,1.3-.312,3.259,3.259,0,0,0,.93-.828l.883.688A3.55,3.55,0,0,1,59.422,15.156Zm-.18-7.578a1.928,1.928,0,0,0-1.469.637A3.1,3.1,0,0,0,57.039,10h4.234V9.891a2.753,2.753,0,0,0-.594-1.707A1.815,1.815,0,0,0,59.242,7.578Zm16.25,3.289a5.062,5.062,0,0,1-.883,3.109,2.829,2.829,0,0,1-2.391,1.18A3.1,3.1,0,0,1,69.8,14.18v4.07H68.352V6.547h1.32l.07.938A2.977,2.977,0,0,1,72.2,6.391a2.882,2.882,0,0,1,2.41,1.148,5.117,5.117,0,0,1,.887,3.2ZM74.047,10.7a3.735,3.735,0,0,0-.609-2.258,1.963,1.963,0,0,0-1.672-.828A2.125,2.125,0,0,0,69.8,8.781V12.82a2.129,2.129,0,0,0,1.984,1.156,1.954,1.954,0,0,0,1.652-.824A4.077,4.077,0,0,0,74.047,10.7Zm2.9-.008a4.993,4.993,0,0,1,.488-2.234A3.643,3.643,0,0,1,78.793,6.93a3.7,3.7,0,0,1,1.988-.539,3.565,3.565,0,0,1,2.793,1.2,4.6,4.6,0,0,1,1.066,3.18v.1a5.036,5.036,0,0,1-.473,2.215,3.589,3.589,0,0,1-1.352,1.527,3.743,3.743,0,0,1-2.02.547,3.556,3.556,0,0,1-2.785-1.2A4.575,4.575,0,0,1,76.945,10.8Zm1.453.172a3.616,3.616,0,0,0,.652,2.258,2.211,2.211,0,0,0,3.5-.012A3.955,3.955,0,0,0,83.2,10.7a3.61,3.61,0,0,0-.66-2.254,2.1,2.1,0,0,0-1.754-.863,2.075,2.075,0,0,0-1.727.852A3.925,3.925,0,0,0,78.4,10.867ZM88.023,15H86.578V3h1.445Zm3.883,0H90.461V3h1.445Zm1.93-4.3a4.993,4.993,0,0,1,.488-2.234A3.643,3.643,0,0,1,95.684,6.93a3.7,3.7,0,0,1,1.988-.539,3.565,3.565,0,0,1,2.793,1.2,4.6,4.6,0,0,1,1.066,3.18v.1a5.036,5.036,0,0,1-.473,2.215,3.589,3.589,0,0,1-1.352,1.527,3.743,3.743,0,0,1-2.02.547,3.556,3.556,0,0,1-2.785-1.2A4.575,4.575,0,0,1,93.836,10.8Zm1.453.172a3.616,3.616,0,0,0,.652,2.258,2.211,2.211,0,0,0,3.5-.012,3.955,3.955,0,0,0,.648-2.418,3.61,3.61,0,0,0-.66-2.254,2.1,2.1,0,0,0-1.754-.863,2.075,2.075,0,0,0-1.727.852A3.925,3.925,0,0,0,95.289,10.867Z" transform="translate(-17222.748 -1899.756)" fill="#12263f"/>
    <g id="Grupo_1067464" data-name="Grupo 1067464" transform="translate(-17383.248 -11049.105)">
      <text id="Alimento_de_alto_nivel_nutritivo_y_proteínico_" data-name="Alimento de alto nivel nutritivo y proteínico
" transform="translate(370 9127.877)" fill="#12263f" font-size="16" font-family="Roboto-Regular, Roboto"><tspan x="6.444" y="15">Alimento de alto nivel </tspan><tspan x="10.37" y="39">nutritivo y proteínico</tspan></text>
    </g>
    <rect id="Rectángulo_375555" data-name="Rectángulo 375555" width="219" height="126" rx="20" transform="translate(-17276.5 -2593.873)" fill="#e4e8e1"/>
    <rect id="Rectángulo_375558" data-name="Rectángulo 375558" width="219" height="105" rx="20" transform="translate(-17276.5 -2439.873)" fill="#e4e8e1"/>
    <rect id="Rectángulo_375559" data-name="Rectángulo 375559" width="219" height="105" rx="20" transform="translate(-17276.5 -2057.873)" fill="#e4e8e1"/>
    <rect id="Rectángulo_375561" data-name="Rectángulo 375561" width="219" height="42" rx="12" transform="translate(-17276.5 -1843.873)" fill="#e4e8e1"/>
    <rect id="Rectángulo_375562" data-name="Rectángulo 375562" width="219" height="99" rx="12" transform="translate(-17276.5 -1789.873)" fill="#e4e8e1"/>
    <rect id="Rectángulo_375563" data-name="Rectángulo 375563" width="219" height="99" rx="12" transform="translate(-17042.5 -1739.873)" fill="#e4e8e1"/>
    <rect id="Rectángulo_375560" data-name="Rectángulo 375560" width="214" height="84" rx="20" transform="translate(-17035.5 -2057.873)" fill="#e4e8e1"/>
    <rect id="Rectángulo_375556" data-name="Rectángulo 375556" width="206" height="101" rx="20" transform="translate(-17025.5 -2593.873)" fill="#e4e8e1"/>
    <rect id="Rectángulo_375557" data-name="Rectángulo 375557" width="206" height="101" rx="20" transform="translate(-17025.5 -2467.873)" fill="#e4e8e1"/>
    <g id="Grupo_1067472" data-name="Grupo 1067472" transform="translate(-17723.898 -11857.186)">
      <text id="Proteínas:_alto_valor_biológico_con_alto_contenido_de_colágeno._" data-name="Proteínas: alto valor biológico con alto contenido de colágeno.
" transform="translate(708.25 9280.403)" fill="#12263f" font-size="16" font-family="Roboto-Regular, Roboto"><tspan x="21.124" y="15">Proteínas: alto valor </tspan><tspan x="28.558" y="39">biológico con alto </tspan><tspan x="8.741" y="63">contenido de colágeno.</tspan></text>
    </g>
    <g id="Grupo_1067473" data-name="Grupo 1067473" transform="translate(-17969.588 -11991.842)">
      <text id="Grasas:_compuesta_por_ácidos_grasos_insaturados_que_contienen_omega_9._" data-name="Grasas: compuesta por ácidos grasos insaturados que contienen omega 9.
" transform="translate(708.25 9414.929)" fill="#12263f" font-size="16" font-family="Roboto-Regular, Roboto"><tspan x="9.151" y="15">Grasas: compuesta por </tspan><tspan x="41.886" y="39">ácidos grasos </tspan><tspan x="34.616" y="63">insaturados que </tspan><tspan x="21.515" y="87">contienen omega 9.</tspan></text>
    </g>
    <g id="Grupo_1067474" data-name="Grupo 1067474" transform="translate(-17721.762 -12027.482)">
      <text id="Colesterol:_al_igual_que_la_vacuna_posee_entre_45_y_50mg_de_colesterol._" data-name="Colesterol: al igual que la vacuna posee entre 45 y 50mg de colesterol.
" transform="translate(708.25 9578.587)" fill="#12263f" font-size="16" font-family="Roboto-Regular, Roboto"><tspan x="2.917" y="15">Colesterol: al igual que la </tspan><tspan x="5.737" y="39">vacuna posee entre 45 y </tspan><tspan x="21.409" y="63">50mg de colesterol.</tspan></text>
    </g>
    <g id="Grupo_1067475" data-name="Grupo 1067475" transform="translate(-17970 -12134.438)">
      <text id="Vitaminas_y_minerales:_buena_proporción_de_hierro_y_otros_minerales._" data-name="Vitaminas y minerales:
buena proporción de hierro y otros minerales.
" transform="translate(708.25 9713.733)" fill="#12263f" font-size="16" font-family="Roboto-Regular, Roboto"><tspan x="11.413" y="15">Vitaminas y minerales:</tspan><tspan x="18.667" y="39">buena proporción de </tspan><tspan x="6.128" y="63">hierro y otros minerales.</tspan></text>
    </g>
    <g id="Grupo_1067477" data-name="Grupo 1067477" transform="translate(-18079.512 -11392.748)">
      <g id="Grupo_1067449" data-name="Grupo 1067449" transform="translate(0 -29.316)">
        <text id="Cría:_su_finalidad_es_generar_terneros._" data-name="Cría: su finalidad es generar terneros.
" transform="translate(1066 9384.321)" fill="#12263f" font-size="16" font-family="Roboto-Regular, Roboto"><tspan x="13.276" y="15">Cría: su finalidad es </tspan><tspan x="22.147" y="39">generar terneros.</tspan></text>
      </g>
    </g>
    <g id="Grupo_1067476" data-name="Grupo 1067476" transform="translate(-18317.748 -11502.432)">
      <g id="Grupo_1067448" data-name="Grupo 1067448" transform="translate(1060.762 9467.552)">
        <g id="Grupo_1067447" data-name="Grupo 1067447">
          <text id="Llevar_los_terneros_de_cría_a_novillo_para_ser_faenado._" data-name="Llevar los terneros de cría a novillo para ser faenado.
" fill="#12263f" font-size="16" font-family="Roboto-Regular, Roboto"><tspan x="8.712" y="15">Llevar los terneros de </tspan><tspan x="9.38" y="39">cría a novillo para ser </tspan><tspan x="53.556" y="63">faenado.</tspan></text>
        </g>
      </g>
    </g>
    <g id="Grupo_1067462" data-name="Grupo 1067462" transform="translate(-17389.514 -11124.762)">
      <text id="Cantidad_mínima_de_grasas_comparada_con_la_carne_vacuna_y_porcina._" data-name="Cantidad mínima de grasas comparada con la carne vacuna y porcina.
" transform="translate(364.762 9399.535)" fill="#12263f" font-size="16" font-family="Roboto-Regular, Roboto"><tspan x="20.429" y="15">Cantidad mínima de </tspan><tspan x="1.991" y="39">grasas comparada con la </tspan><tspan x="7.909" y="63">carne vacuna y porcina.</tspan></text>
    </g>
    <g id="Grupo_1067461" data-name="Grupo 1067461" transform="translate(-17622.379 -11302.305)">
      <text id="Vitaminas_como_el_potasio_calcio_y_fósforo._" data-name="Vitaminas como el potasio, calcio y fósforo.
" transform="translate(364.762 9537.254)" fill="#12263f" font-size="16" font-family="Roboto-Regular, Roboto"><tspan x="25.444" y="15">Vitaminas como el </tspan><tspan x="4.534" y="39">potasio, calcio y fósforo.</tspan></text>
    </g>
    <g id="Grupo_1067463" data-name="Grupo 1067463" transform="translate(-17615.48 -11126.557)">
      <text id="Bajo_precio_" data-name="Bajo precio
" transform="translate(349.765 9295.166)" fill="#12263f" font-size="16" font-family="Roboto-Regular, Roboto"><tspan x="63.029" y="15">Bajo precio</tspan></text>
    </g>
    <g transform="matrix(1, 0, 0, 1, -17310.5, -2889.85)" filter="url(#Rectángulo_375553)">
      <rect id="Rectángulo_375553-2" data-name="Rectángulo 375553" width="216" height="106" rx="20" transform="translate(274.55 143.48)" fill="#f6efe9"/>
    </g>
    <g id="Grupo_1067471" data-name="Grupo 1067471" transform="translate(-17730.764 -11866.207)">
      <text id="Alimento_muy_completo_nutricionalmente_" data-name="Alimento muy completo nutricionalmente
" transform="translate(717.251 9140.5)" fill="#12263f" font-size="16" font-family="Roboto-Regular, Roboto"><tspan x="33.698" y="15">Alimento muy </tspan><tspan x="49.222" y="39">completo </tspan><tspan x="22.749" y="63">nutricionalmente</tspan></text>
    </g>
    <path id="Trazado_814927" data-name="Trazado 814927" d="M-16914.539-2467v33.823h-125.818v215.11" transform="translate(-0.5 -186.873)" fill="none" stroke="#707070" stroke-width="1.5"/>
  </g>
</svg>
